<svg xmlns="http://www.w3.org/2000/svg" width="50" height="50" viewBox="0 0 50 50"><path d="M34.1,48.263c.042-.013.081-.029.123-.044C59.7,38.111,52.654,0,25.024,0A24.992,24.992,0,1,0,34.1,48.263Zm-23.091-6.48c1.777-2.983,7.526-11.4,17.34-14.3a52.594,52.594,0,0,1,3.633,18.237,21.777,21.777,0,0,1-20.973-3.935Zm24.049,2.631A56.029,56.029,0,0,0,31.5,26.777a28.372,28.372,0,0,1,15.067,2.056A21.923,21.923,0,0,1,35.061,44.414ZM46.89,25.6a30.377,30.377,0,0,0-16.6-1.737c-.74-1.666-1.518-3.268-2.342-4.743a41.717,41.717,0,0,0,13.632-8.394A21.576,21.576,0,0,1,46.89,25.6ZM39.361,8.5a40.148,40.148,0,0,1-13.054,7.853A58.469,58.469,0,0,0,16.718,4.77,21.786,21.786,0,0,1,39.361,8.5ZM13.728,6.3a55,55,0,0,1,9.484,11.159,68.924,68.924,0,0,1-19.621,3.07A21.914,21.914,0,0,1,13.728,6.3ZM3.195,23.663A72.083,72.083,0,0,0,24.9,20.23c.784,1.373,1.529,2.868,2.244,4.422C17.271,27.793,11.1,35.9,8.738,39.565a21.572,21.572,0,0,1-5.543-15.9Z" fill="#fff"/></svg>