<svg xmlns="http://www.w3.org/2000/svg" xmlns:xlink="http://www.w3.org/1999/xlink" width="50" height="50" viewBox="0 0 50 50"><defs><clipPath id="a"><circle cx="25" cy="25" r="25" transform="translate(563 1669)" fill="#fff"/></clipPath></defs><g transform="translate(-563 -1669)" clip-path="url(#a)"><g transform="translate(563 1669)"><path d="M25,.52a25.115,25.115,0,0,0-7.9,48.916c1.25.231,1.706-.544,1.706-1.209,0-.6-.022-2.175-.034-4.269-6.953,1.516-8.422-3.366-8.422-3.366-1.134-2.9-2.775-3.672-2.775-3.672C5.3,35.364,7.744,35.4,7.744,35.4a5.251,5.251,0,0,1,3.828,2.587c2.231,3.834,5.853,2.728,7.278,2.084a5.358,5.358,0,0,1,1.587-3.356c-5.55-.634-11.388-2.788-11.388-12.4a9.729,9.729,0,0,1,2.575-6.738,9.044,9.044,0,0,1,.244-6.641s2.1-.675,6.875,2.572a23.6,23.6,0,0,1,12.519,0c4.772-3.247,6.869-2.572,6.869-2.572a9.058,9.058,0,0,1,.25,6.641,9.71,9.71,0,0,1,2.569,6.737c0,9.641-5.844,11.762-11.413,12.384a6,6,0,0,1,1.7,4.647c0,3.356-.031,6.063-.031,6.884,0,.672.45,1.453,1.719,1.206A25.117,25.117,0,0,0,25,.52Z" fill="#fff"/></g></g></svg>