<svg xmlns="http://www.w3.org/2000/svg" width="29" height="29" viewBox="0 0 29 29"><g transform="translate(-896 -154)"><circle cx="14.5" cy="14.5" r="14.5" transform="translate(896 154)" fill="#22acea"/><g transform="translate(-76 84)"><g transform="translate(977.316 81.314)" fill="none"><path d="M1.67,8.979A2,2,0,0,1-.017,8.053L7.509.54a1.848,1.848,0,0,1,2.611,0l7.628,7.616a2,2,0,0,1-1.617.824Z" stroke="none"/><path d="M 16.13070106506348 7.979300022125244 C 16.13904762268066 7.979300022125244 16.14734649658203 7.97920036315918 16.15565299987793 7.979000568389893 L 9.412941932678223 1.247550129890442 C 9.25310230255127 1.087910056114197 9.040452003479004 1.00000011920929 8.814151763916016 1.00000011920929 C 8.587851524353027 1.00000011920929 8.375202178955078 1.087910056114197 8.215222358703613 1.247700095176697 L 1.488808274269104 7.962869644165039 C 1.548043847084045 7.97371244430542 1.608784675598145 7.979300022125244 1.670401930809021 7.979300022125244 L 16.13070106506348 7.979300022125244 M 16.13070106506348 8.979300498962402 L 1.670401930809021 8.979300498962402 C 0.9612019658088684 8.979300498962402 0.3381019532680511 8.609869956970215 -0.01696805097162724 8.05309009552002 L 7.508701801300049 0.5400000810623169 C 7.869152069091797 0.1800000965595245 8.341651916503906 9.689330937590057e-08 8.814151763916016 9.689330937590057e-08 C 9.286651611328125 9.689330937590057e-08 9.759152412414551 0.1800000965595245 10.11960220336914 0.5400000810623169 L 17.74807167053223 8.155719757080078 C 17.38443183898926 8.65487003326416 16.79541206359863 8.979300498962402 16.13070106506348 8.979300498962402 Z" stroke="none" fill="#fff"/></g><g transform="translate(977.334 78)" fill="#22acea"><path d="M 8.796154022216797 8.052254676818848 C 8.431843757629395 8.052254676818848 8.09062385559082 7.918505191802979 7.835323810577393 7.675644874572754 L 0.6723066568374634 0.8644655346870422 C 0.9415530562400818 0.6318047642707825 1.287722110748291 0.5000049471855164 1.653303861618042 0.5000049471855164 L 16.11270332336426 0.5000049471855164 C 16.43848991394043 0.5000049471855164 16.74612617492676 0.6024155020713806 16.99971008300781 0.7892641425132751 L 9.757074356079102 7.675544738769531 C 9.501684188842773 7.918505191802979 9.160464286804199 8.052254676818848 8.796154022216797 8.052254676818848 Z" stroke="none"/><path d="M 8.796154022216797 7.552255153656006 C 9.031594276428223 7.552255153656006 9.250433921813965 7.467424869537354 9.412553787231445 7.313194751739502 L 16.05244255065918 1.000005006790161 L 1.653303861618042 1.000005006790161 C 1.617360830307007 1.000005006790161 1.581670522689819 1.001919865608215 1.546410918235779 1.005676507949829 L 8.179953575134277 7.313374996185303 C 8.341874122619629 7.467424869537354 8.560713768005371 7.552255153656006 8.796154022216797 7.552255153656006 M 8.796154022216797 8.552254676818848 C 8.323654174804688 8.552254676818848 7.85115385055542 8.380805015563965 7.49070405960083 8.037904739379883 L -0.01715609431266785 0.89882493019104 C 0.3407739102840424 0.3573049604892731 0.9551938772201538 4.954223641107092e-06 1.653303861618042 4.954223641107092e-06 L 16.11270332336426 4.954223641107092e-06 C 16.76723480224609 4.954223641107092e-06 17.34838485717773 0.3145849406719208 17.71322441101074 0.8007949590682983 L 10.10160350799561 8.037904739379883 C 9.741153717041016 8.380805015563965 9.268653869628906 8.552254676818848 8.796154022216797 8.552254676818848 Z" stroke="none" fill="#fff"/></g><g transform="translate(977 78)" fill="none" stroke="#fff" stroke-width="1"><rect width="18.43" height="12.44" rx="2" stroke="none"/><rect x="0.5" y="0.5" width="17.43" height="11.44" rx="1.5" fill="none"/></g></g></g></svg>