<svg xmlns="http://www.w3.org/2000/svg" width="29" height="29" viewBox="0 0 29 29"><g transform="translate(-942 -177)"><g transform="translate(942 177)" fill="#22acea" stroke="#22acea" stroke-width="1"><circle cx="14.5" cy="14.5" r="14.5" stroke="none"/><circle cx="14.5" cy="14.5" r="14" fill="none"/></g><g transform="translate(948.656 181)"><g transform="translate(0.344 2.805)"><path d="M13.254,36.588a1.608,1.608,0,0,0-1.166-.535,1.663,1.663,0,0,0-1.18.531l-1.09,1.087c-.09-.048-.179-.093-.266-.138-.124-.062-.242-.121-.342-.183a11.851,11.851,0,0,1-2.84-2.588,6.992,6.992,0,0,1-.932-1.47c.283-.259.545-.528.8-.787.1-.1.193-.2.29-.293a1.583,1.583,0,0,0,0-2.388l-.942-.942c-.107-.107-.217-.217-.321-.328-.207-.214-.424-.435-.649-.642a1.633,1.633,0,0,0-1.156-.507,1.69,1.69,0,0,0-1.173.507l-.007.007L1.107,29.1a2.524,2.524,0,0,0-.749,1.6A6.049,6.049,0,0,0,.8,33.269a14.857,14.857,0,0,0,2.64,4.4,16.238,16.238,0,0,0,5.407,4.234,8.425,8.425,0,0,0,3.037.9c.072,0,.148.007.217.007a2.6,2.6,0,0,0,1.991-.856c0-.007.01-.01.014-.017a7.843,7.843,0,0,1,.6-.625c.148-.141.3-.29.449-.445a1.721,1.721,0,0,0,.521-1.194,1.658,1.658,0,0,0-.531-1.184Zm1.235,3.633s0,0,0,0c-.135.145-.273.276-.421.421a9.073,9.073,0,0,0-.666.69,1.663,1.663,0,0,1-1.3.549c-.052,0-.107,0-.159,0a7.484,7.484,0,0,1-2.691-.807,15.328,15.328,0,0,1-5.093-3.989,14.009,14.009,0,0,1-2.484-4.137,4.927,4.927,0,0,1-.386-2.16,1.584,1.584,0,0,1,.476-1.025l1.177-1.177a.784.784,0,0,1,.524-.245.738.738,0,0,1,.5.242l.01.01c.21.2.411.4.621.618.107.11.217.221.328.335l.942.942a.659.659,0,0,1,0,1.07c-.1.1-.2.2-.3.3-.29.3-.566.573-.866.842-.007.007-.014.01-.017.017a.7.7,0,0,0-.179.783l.01.031a7.563,7.563,0,0,0,1.115,1.818l0,0a12.665,12.665,0,0,0,3.064,2.788,4.711,4.711,0,0,0,.424.231c.124.062.242.121.342.183.014.007.028.017.041.024a.748.748,0,0,0,.342.086.738.738,0,0,0,.524-.238l1.18-1.18a.781.781,0,0,1,.521-.259.7.7,0,0,1,.5.252l.007.007,1.9,1.9A.682.682,0,0,1,14.489,40.222Z" transform="translate(-0.344 -27.406)" fill="#fff"/></g></g></g></svg>