<svg xmlns="http://www.w3.org/2000/svg" width="29" height="29.002" viewBox="0 0 29 29.002"><g transform="translate(0 0)"><path d="M26.336,6.129a.242.242,0,0,0,0-.028c-.036-.052-.081-.1-.118-.147q-.406-.553-.86-1.065c-.083-.093-.166-.185-.251-.277q-.467-.5-.98-.954c-.063-.056-.122-.114-.185-.169a14.521,14.521,0,0,0-2.75-1.857c-.039-.021-.081-.038-.121-.059a14.409,14.409,0,0,0-1.347-.6c-.1-.037-.2-.073-.3-.1Q18.812.649,18.181.483c-.124-.033-.249-.067-.375-.1-.414-.1-.829-.17-1.253-.23C16.425.138,16.3.113,16.169.1a13.621,13.621,0,0,0-3.286,0c-.129.016-.256.04-.384.059-.424.06-.842.134-1.253.23-.126.029-.251.063-.375.1Q10.235.649,9.627.87c-.1.035-.2.07-.3.1a14.4,14.4,0,0,0-1.347.6c-.04.021-.082.038-.121.059A14.525,14.525,0,0,0,5.1,3.489c-.063.055-.122.113-.185.169a13.476,13.476,0,0,0-.98.954c-.085.091-.168.183-.251.277q-.455.511-.86,1.065c-.037.051-.082.1-.118.147a.235.235,0,0,0-.012.028,14.411,14.411,0,0,0,0,16.741.225.225,0,0,0,.012.028c.036.052.081.1.118.147q.405.553.86,1.065c.083.093.166.185.251.277q.468.5.98.954c.063.056.122.114.185.169a14.521,14.521,0,0,0,2.75,1.857c.039.021.081.038.121.059a14.408,14.408,0,0,0,1.347.6c.1.037.2.073.3.1q.612.221,1.243.386c.124.033.249.067.375.1.414.1.829.17,1.253.23.128.019.255.044.384.059a13.621,13.621,0,0,0,3.286,0c.129-.016.256-.04.384-.059.424-.06.842-.134,1.253-.23.126-.029.251-.063.375-.1q.636-.166,1.243-.386c.1-.035.2-.07.3-.1a14.4,14.4,0,0,0,1.347-.6c.04-.021.082-.038.121-.059a14.524,14.524,0,0,0,2.75-1.857c.063-.055.122-.113.185-.169a13.191,13.191,0,0,0,.98-.954c.085-.091.168-.183.251-.277q.455-.512.86-1.065c.037-.051.082-.1.118-.147a.235.235,0,0,0,.012-.028A14.411,14.411,0,0,0,26.336,6.129Zm-1.182,1.96A12.328,12.328,0,0,1,26.9,13.463H20.7a19.334,19.334,0,0,0-.58-3.656A18.618,18.618,0,0,0,25.154,8.089Zm-8-5.737c.058.013.114.032.172.046a11.15,11.15,0,0,1,1.1.311c.055.019.109.04.163.06q.535.186,1.052.414c.06.028.119.059.179.087q.494.235.966.509l.207.125q.448.274.87.585c.073.053.145.1.217.162a9.453,9.453,0,0,1,.794.666c.066.06.135.119.2.181.265.252.518.518.763.794.031.036.064.069.1.1a17.379,17.379,0,0,1-4.419,1.419,26.345,26.345,0,0,0-2.789-5.535C16.868,2.307,17.016,2.321,17.158,2.352ZM10.415,13.463a17.287,17.287,0,0,1,.57-3.315,29.689,29.689,0,0,0,3.537.207,29.756,29.756,0,0,0,3.54-.212,17.256,17.256,0,0,1,.567,3.321Zm8.214,2.072a17.287,17.287,0,0,1-.57,3.315,30.323,30.323,0,0,0-7.078,0,17.26,17.26,0,0,1-.567-3.315ZM14.522,2.742A25.024,25.024,0,0,1,17.409,8.13a27.423,27.423,0,0,1-2.888.153,27.63,27.63,0,0,1-2.884-.154A25.221,25.221,0,0,1,14.522,2.742ZM5.207,6.292c.244-.276.5-.542.763-.794.065-.062.134-.121.2-.181q.383-.349.794-.666c.072-.055.144-.1.217-.162q.423-.311.87-.585l.207-.125q.471-.276.966-.509c.06-.028.119-.059.179-.087q.516-.233,1.052-.414c.054-.02.1-.041.163-.06.36-.12.725-.22,1.1-.311.058-.013.114-.032.173-.045.142-.031.289-.046.433-.072a26.347,26.347,0,0,0-2.79,5.536A17.378,17.378,0,0,1,5.112,6.4C5.143,6.361,5.176,6.328,5.207,6.292Zm-1.318,1.8A18.615,18.615,0,0,0,8.927,9.807a19.333,19.333,0,0,0-.579,3.656H2.142A12.33,12.33,0,0,1,3.889,8.089Zm0,12.821a12.328,12.328,0,0,1-1.748-5.374H8.348a19.334,19.334,0,0,0,.58,3.656A18.614,18.614,0,0,0,3.889,20.91Zm8,5.737c-.058-.013-.114-.032-.172-.046a11.149,11.149,0,0,1-1.1-.311c-.055-.019-.109-.04-.163-.06q-.535-.186-1.052-.414c-.06-.028-.119-.059-.179-.087q-.494-.235-.966-.509l-.207-.125q-.448-.274-.87-.585c-.073-.053-.145-.1-.217-.162a9.454,9.454,0,0,1-.794-.666c-.066-.06-.135-.119-.2-.181-.265-.252-.518-.518-.763-.794-.031-.036-.064-.069-.1-.1A17.379,17.379,0,0,1,9.53,21.183a26.345,26.345,0,0,0,2.789,5.535C12.175,26.692,12.028,26.678,11.886,26.647Zm2.636-.39a25.024,25.024,0,0,1-2.888-5.388,26.972,26.972,0,0,1,5.773,0h0A25.216,25.216,0,0,1,14.522,26.257Zm9.314-3.55c-.243.276-.5.542-.763.794-.065.062-.134.121-.2.181q-.383.35-.794.666c-.072.055-.144.109-.217.162q-.423.311-.87.585l-.207.125q-.47.275-.966.509c-.06.028-.119.059-.179.087q-.516.233-1.052.414c-.054.02-.1.041-.163.06-.36.12-.725.22-1.1.311-.058.013-.114.032-.173.045-.142.031-.289.046-.433.072a26.342,26.342,0,0,0,2.789-5.535A17.379,17.379,0,0,1,23.93,22.6C23.9,22.638,23.867,22.671,23.836,22.707Zm1.318-1.8a18.615,18.615,0,0,0-5.037-1.718,19.334,19.334,0,0,0,.579-3.656H26.9A12.33,12.33,0,0,1,25.154,20.91Z" transform="translate(-0.016 0.002)" fill="#22acea"/></g></svg>