<svg xmlns="http://www.w3.org/2000/svg" width="50" height="50.004" viewBox="0 0 50 50.004"><g transform="translate(-0.016 0.002)"><g transform="translate(0.016 -0.002)"><path d="M45.4,10.568a.417.417,0,0,0-.005-.048c-.062-.089-.139-.166-.2-.254q-.7-.954-1.483-1.836c-.143-.161-.286-.32-.432-.477q-.806-.863-1.69-1.645c-.109-.1-.211-.2-.32-.291a25.037,25.037,0,0,0-4.741-3.2c-.068-.036-.139-.066-.209-.1a24.843,24.843,0,0,0-2.322-1.034c-.179-.064-.341-.125-.511-.179q-1.056-.38-2.144-.666c-.214-.057-.429-.116-.647-.166-.715-.166-1.429-.293-2.16-.4-.221-.032-.439-.075-.663-.1A23.484,23.484,0,0,0,22.2.17c-.223.027-.441.07-.663.1-.731.1-1.452.23-2.16.4-.218.05-.432.109-.647.166q-1.1.286-2.144.666c-.179.061-.341.122-.511.179a24.828,24.828,0,0,0-2.322,1.034c-.07.036-.141.066-.209.1a25.043,25.043,0,0,0-4.757,3.2c-.109.095-.211.195-.32.291a23.234,23.234,0,0,0-1.69,1.645c-.146.157-.289.316-.432.477q-.784.881-1.483,1.836c-.064.088-.141.164-.2.254a.405.405,0,0,0-.021.048,24.846,24.846,0,0,0,0,28.864.389.389,0,0,0,.021.048c.062.089.139.166.2.254q.7.954,1.483,1.836c.143.161.286.32.432.477q.807.863,1.69,1.645c.109.1.211.2.32.291a25.037,25.037,0,0,0,4.741,3.2c.068.036.139.066.209.1a24.842,24.842,0,0,0,2.322,1.034c.179.064.341.125.511.179q1.056.38,2.144.666c.214.057.429.116.647.166.715.166,1.429.293,2.16.4.221.032.439.075.663.1a23.485,23.485,0,0,0,5.666,0c.223-.027.441-.07.663-.1.731-.1,1.452-.23,2.16-.4.218-.05.432-.109.647-.166q1.1-.286,2.144-.666c.179-.061.341-.122.511-.179A24.827,24.827,0,0,0,36.3,47.287c.07-.036.141-.066.209-.1a25.041,25.041,0,0,0,4.741-3.2c.109-.095.211-.195.32-.291a22.743,22.743,0,0,0,1.69-1.645c.146-.157.289-.316.432-.477q.784-.883,1.483-1.836c.064-.088.141-.164.2-.254a.405.405,0,0,0,.021-.048A24.846,24.846,0,0,0,45.4,10.568Zm-2.038,3.38a21.256,21.256,0,0,1,3.014,9.266H35.67a33.334,33.334,0,0,0-1-6.3A32.1,32.1,0,0,0,43.357,13.948ZM29.57,4.057c.1.023.2.055.3.079a19.224,19.224,0,0,1,1.894.536c.095.032.188.07.281.1q.922.322,1.813.715c.1.048.205.1.309.15q.852.406,1.665.877l.357.216q.772.472,1.5,1.009c.125.091.25.179.373.279A16.3,16.3,0,0,1,39.427,9.17c.114.1.232.205.345.313.457.434.893.893,1.315,1.368.054.062.111.12.164.179a29.964,29.964,0,0,1-7.619,2.447,45.422,45.422,0,0,0-4.809-9.543C29.072,3.978,29.325,4,29.57,4.057ZM17.944,23.214a29.806,29.806,0,0,1,.983-5.716,51.188,51.188,0,0,0,6.1.357,51.3,51.3,0,0,0,6.1-.366,29.751,29.751,0,0,1,.977,5.725Zm14.162,3.573a29.806,29.806,0,0,1-.983,5.716,52.282,52.282,0,0,0-12.2,0,29.759,29.759,0,0,1-.977-5.716ZM25.025,4.729A43.145,43.145,0,0,1,30,14.018a47.28,47.28,0,0,1-4.979.264,47.637,47.637,0,0,1-4.973-.266A43.485,43.485,0,0,1,25.025,4.729ZM8.966,10.849c.42-.475.857-.934,1.315-1.368.113-.107.23-.209.345-.313q.661-.6,1.368-1.149c.123-.095.248-.179.373-.279q.729-.536,1.5-1.009l.357-.216q.813-.475,1.665-.877c.1-.048.205-.1.309-.15q.89-.4,1.813-.715c.093-.034.179-.071.28-.1.62-.207,1.25-.379,1.894-.536.1-.023.2-.055.3-.077.245-.054.5-.079.747-.123a45.425,45.425,0,0,0-4.811,9.544A29.963,29.963,0,0,1,8.8,11.031C8.855,10.968,8.913,10.911,8.966,10.849Zm-2.272,3.1a32.1,32.1,0,0,0,8.685,2.962,33.333,33.333,0,0,0-1,6.3H3.68A21.258,21.258,0,0,1,6.694,13.948Zm0,22.1A21.256,21.256,0,0,1,3.68,26.787h10.7a33.334,33.334,0,0,0,1,6.3A32.093,32.093,0,0,0,6.694,36.053Zm13.787,9.891c-.1-.023-.2-.055-.3-.079a19.222,19.222,0,0,1-1.894-.536c-.095-.032-.188-.07-.281-.1q-.922-.322-1.813-.715c-.1-.048-.205-.1-.309-.15q-.852-.406-1.665-.877l-.357-.216q-.772-.472-1.5-1.009c-.125-.091-.25-.179-.373-.279a16.3,16.3,0,0,1-1.368-1.149c-.114-.1-.232-.205-.345-.313-.457-.434-.893-.893-1.315-1.368-.054-.062-.111-.12-.164-.179a29.964,29.964,0,0,1,7.619-2.447,45.422,45.422,0,0,0,4.809,9.543C20.979,46.022,20.726,46,20.481,45.944Zm4.544-.672a43.145,43.145,0,0,1-4.979-9.289,46.5,46.5,0,0,1,9.954,0l0,0A43.476,43.476,0,0,1,25.025,45.272Zm16.059-6.12c-.42.475-.857.934-1.315,1.368-.113.107-.23.209-.345.313q-.661.6-1.368,1.149c-.123.095-.248.188-.373.279q-.729.536-1.5,1.009l-.357.216q-.811.473-1.665.877c-.1.048-.205.1-.309.15q-.89.4-1.813.715c-.093.034-.179.071-.28.1-.62.207-1.25.379-1.894.536-.1.023-.2.055-.3.077-.245.054-.5.079-.747.123a45.417,45.417,0,0,0,4.809-9.543,29.963,29.963,0,0,1,7.619,2.447C41.2,39.032,41.138,39.089,41.085,39.152Zm2.272-3.1a32.094,32.094,0,0,0-8.685-2.962,33.334,33.334,0,0,0,1-6.3h10.7A21.259,21.259,0,0,1,43.357,36.053Z" transform="translate(-0.016 0.002)" fill="#fff"/></g></g></svg>